<?xml version="1.0" standalone="no"?>
<!DOCTYPE svg PUBLIC "-//W3C//DTD SVG 20010904//EN"
 "http://www.w3.org/TR/2001/REC-SVG-20010904/DTD/svg10.dtd">
<svg version="1.0" xmlns="http://www.w3.org/2000/svg"
 width="400.000000pt" height="400.000000pt" viewBox="0 0 400.000000 400.000000"
 preserveAspectRatio="xMidYMid meet">

<g transform="translate(0.000000,400.000000) scale(0.100000,-0.100000)"
fill="#000000" stroke="none">
<path d="M0 2058 l0 -1942 21 -44 c27 -54 70 -78 125 -67 32 5 66 34 208 174
182 177 264 242 367 291 195 91 416 86 665 -15 112 -45 161 -46 201 -6 18 18
58 94 102 197 196 454 287 522 720 544 108 5 222 10 253 10 46 0 62 5 88 27
41 34 46 49 70 204 50 326 124 522 257 682 94 113 194 179 365 242 138 51 151
75 124 230 -32 185 -38 249 -33 395 6 177 27 264 97 405 61 121 160 247 269
341 88 75 108 110 96 171 -9 50 -31 80 -67 92 -22 8 -616 11 -1979 11 l-1949
0 0 -1942z m1226 1660 c-3 -13 -9 -51 -13 -85 -3 -35 -10 -63 -15 -63 -8 0
-270 107 -378 154 -33 14 -21 15 189 16 l223 0 -6 -22z m764 17 c0 -3 -9 -24
-20 -46 -43 -84 -75 -225 -83 -361 l-2 -46 -204 84 c-113 47 -211 90 -218 96
-19 15 -17 138 4 190 9 24 25 53 36 66 20 22 25 22 254 22 128 0 233 -2 233
-5z m771 -27 c-107 -163 -163 -361 -164 -585 0 -73 -3 -133 -6 -133 -3 0 -103
40 -221 89 -171 72 -216 94 -223 113 -15 40 -20 190 -8 253 15 81 59 168 121
238 l52 57 235 0 235 0 -21 -32z m742 -50 c-98 -144 -163 -303 -198 -482 -20
-108 -29 -294 -17 -391 5 -44 8 -82 6 -84 -2 -2 -99 37 -216 85 l-212 89 -13
65 c-16 84 -18 273 -3 347 28 141 91 260 201 377 l71 76 219 0 218 0 -56 -82z
m-2623 -238 c236 -98 218 -85 182 -123 -16 -18 -38 -49 -49 -69 l-18 -38 -155
156 c-85 86 -150 154 -145 151 6 -2 89 -37 185 -77z m-50 -440 c0 -3 -15 -11
-33 -18 -18 -7 -52 -28 -76 -48 -23 -20 -43 -35 -45 -33 -2 3 -108 260 -163
399 -12 28 20 1 151 -130 91 -91 166 -167 166 -170z m720 164 c102 -42 189
-80 193 -84 4 -4 -12 -23 -37 -44 -62 -51 -138 -167 -166 -257 -13 -40 -25
-76 -27 -79 -2 -2 -73 65 -158 150 -175 175 -177 178 -131 277 20 42 35 58 78
82 29 17 55 31 58 31 2 0 88 -34 190 -76z m-1187 -174 l93 -225 -40 -7 c-55
-10 -117 -25 -138 -33 -17 -7 -18 9 -17 251 0 143 3 255 5 249 2 -5 46 -111
97 -235z m1874 -111 c109 -45 200 -83 202 -85 3 -3 -20 -26 -50 -52 -164 -141
-256 -292 -311 -506 l-22 -87 -163 163 -164 163 6 55 c16 130 73 257 150 335
42 41 122 95 142 95 6 0 101 -37 210 -81z m-1062 -219 c99 -99 125 -130 108
-130 -11 0 -50 -9 -86 -20 -81 -25 -168 -90 -222 -164 -21 -31 -42 -52 -45
-48 -9 10 -140 329 -140 340 0 16 59 91 86 109 24 15 113 40 154 42 8 1 74
-57 145 -129z m1757 -69 c92 -39 175 -74 184 -79 14 -8 6 -17 -47 -53 -129
-87 -268 -248 -344 -398 -41 -83 -97 -248 -120 -359 l-18 -84 -154 154 -154
153 6 63 c10 99 51 239 101 341 37 79 58 108 127 176 77 76 196 154 237 155 8
0 90 -31 182 -69z m-2371 -88 c9 -9 139 -323 139 -335 0 -4 -39 -8 -87 -8
-107 0 -171 -16 -274 -69 l-79 -40 0 183 0 182 28 25 c71 65 115 81 201 74 36
-2 68 -8 72 -12z m1252 -514 c-16 -4 -66 -14 -112 -22 -129 -25 -220 -73 -310
-165 -45 -45 -93 -107 -116 -149 -22 -40 -42 -73 -45 -73 -3 0 -43 91 -88 201
l-83 202 48 95 c83 165 123 192 321 217 l97 12 158 -156 c153 -151 157 -156
130 -162z m-1090 -80 c40 -6 78 -14 86 -19 12 -7 193 -431 186 -438 -2 -2 -40
2 -85 9 -87 12 -217 7 -299 -12 -94 -23 -229 -95 -338 -182 -10 -7 -13 38 -13
221 l0 231 74 64 c86 73 162 113 238 126 74 12 71 12 151 0z m1505 -302 l144
-144 -94 -7 c-226 -16 -392 -75 -506 -181 -68 -62 -153 -183 -219 -309 l-41
-80 -14 35 c-8 18 -43 102 -77 186 l-63 151 49 104 c117 245 190 320 348 357
59 14 186 28 270 30 l60 1 143 -143z m-1298 -401 c47 -8 109 -22 139 -33 l55
-18 78 -189 c43 -104 76 -191 74 -193 -2 -2 -41 3 -86 11 -103 20 -285 21
-383 2 -89 -17 -204 -62 -290 -112 -75 -44 -183 -123 -216 -158 -14 -14 -28
-26 -33 -26 -4 0 -8 91 -8 203 l0 203 88 88 c126 128 224 190 347 222 67 17
133 17 235 0z"/>
</g>
</svg>
